<?xml version="1.0" encoding="UTF-8"?>
<svg id="_Слой_1" data-name="Слой_1" xmlns="http://www.w3.org/2000/svg" xmlns:xlink="http://www.w3.org/1999/xlink" version="1.1" viewBox="0 0 118 72">
  <!-- Generator: Adobe Illustrator 30.0.0, SVG Export Plug-In . SVG Version: 2.1.1 Build 123)  -->
  <defs>
    <style>
      .st0, .st1 {
        fill: none;
      }

      .st2 {
        fill: #fe693e;
      }

      .st3 {
        fill: #fff;
      }

      .st1 {
        stroke: #000;
        stroke-miterlimit: 10;
      }

      .st4 {
        clip-path: url(#clippath);
      }
    </style>
    <clipPath id="clippath">
      <rect class="st0" x="3" y="1" width="27" height="18"/>
    </clipPath>
  </defs>
  <path class="st3" d="M3,16.7h4.5v31.3H3v-31.3ZM20.3,23.6h1.75c3.03,0,4.55,1.48,4.55,4.45v19.95h-4.5v-19.3c0-.6-.1-.98-.3-1.15-.2-.2-.6-.3-1.2-.3h-1.75c-.6,0-1.03.13-1.3.4-.23.27-.35.72-.35,1.35v19h-4.5v-24.4h4.5v1.95c.43-1.3,1.47-1.95,3.1-1.95ZM40.06,14.55h4.5v33.45h-4.5v-1.95c-.43,1.3-1.47,1.95-3.1,1.95h-1.8c-3,0-4.5-1.47-4.5-4.4v-15.6c0-2.97,1.5-4.45,4.5-4.45h1.8c1.63,0,2.67.65,3.1,1.95v-10.95ZM36.66,44.35h1.75c.6,0,1.02-.13,1.25-.4.27-.27.4-.72.4-1.35v-13.65c0-.63-.13-1.08-.4-1.35-.23-.27-.65-.4-1.25-.4h-1.75c-.6,0-1,.1-1.2.3s-.3.58-.3,1.15v14.25c0,.6.1,1,.3,1.2.2.17.6.25,1.2.25ZM58.33,23.6h4.5v24.4h-4.5v-1.95c-.43,1.3-1.47,1.95-3.1,1.95h-1.8c-3,0-4.5-1.47-4.5-4.4v-20h4.5v19.3c0,.6.1,1,.3,1.2.2.17.6.25,1.2.25h1.75c.6,0,1.02-.13,1.25-.4.27-.27.4-.72.4-1.35v-19ZM76.34,14.55h4.5v33.45h-4.5v-1.95c-.43,1.3-1.47,1.95-3.1,1.95h-1.8c-3,0-4.5-1.47-4.5-4.4v-15.6c0-2.97,1.5-4.45,4.5-4.45h1.8c1.63,0,2.67.65,3.1,1.95v-10.95ZM72.94,44.35h1.75c.6,0,1.02-.13,1.25-.4.27-.27.4-.72.4-1.35v-13.65c0-.63-.13-1.08-.4-1.35-.23-.27-.65-.4-1.25-.4h-1.75c-.6,0-1,.1-1.2.3-.2.2-.3.58-.3,1.15v14.25c0,.6.1,1,.3,1.2.2.17.6.25,1.2.25ZM94.61,23.6h4.5v24.4h-4.5v-1.95c-.43,1.3-1.47,1.95-3.1,1.95h-1.8c-3,0-4.5-1.47-4.5-4.4v-20h4.5v19.3c0,.6.1,1,.3,1.2.2.17.6.25,1.2.25h1.75c.6,0,1.02-.13,1.25-.4.27-.27.4-.72.4-1.35v-19ZM111.67,43.1v-4.05c0-.6-.1-.98-.3-1.15-.2-.2-.6-.3-1.2-.3h-2.55c-3.1,0-4.65-1.47-4.65-4.4v-5.15c0-2.97,1.55-4.45,4.65-4.45h3.65c3.13,0,4.7,1.48,4.7,4.45v2.35h-4.4v-1.9c0-.6-.1-.98-.3-1.15-.2-.2-.6-.3-1.2-.3h-1.2c-.6,0-1,.1-1.2.3-.2.17-.3.55-.3,1.15v4.2c0,.6.1,1,.3,1.2.2.17.6.25,1.2.25h2.6c3.07,0,4.6,1.48,4.6,4.45v5c0,2.93-1.55,4.4-4.65,4.4h-3.7c-3.1,0-4.65-1.47-4.65-4.4v-2.4h4.4v1.9c0,.6.1,1,.3,1.2.2.17.6.25,1.2.25h1.2c.6,0,1-.08,1.2-.25.2-.2.3-.6.3-1.2Z"/>
  <g class="st4">
    <g>
      <path class="st2" d="M14.47,5.13l13.44,13.27,2.09-2.06L14.47,1,3,12.32l2.09,2.06L14.47,5.13Z"/>
      <path class="st2" d="M13.64,12.36h-2.62v2.58h2.62v-2.58Z"/>
      <path class="st2" d="M17.99,12.36h-2.62v2.58h2.62v-2.58Z"/>
      <path class="st2" d="M13.64,16.42h-2.62v2.58h2.62v-2.58Z"/>
      <path class="st2" d="M17.99,16.42h-2.62v2.58h2.62v-2.58Z"/>
    </g>
  </g>
  <path class="st1" d="M5.21,12.77c14.69,15.78,33.1,28.07,53.3,35.59,4.57,1.7,10.37,2.92,13.8-.54,1.76-1.78,2.39-4.4,2.53-6.9.68-12.3-10.38-23.98-22.69-23.97-1.8,13.87-5.14,27.53-9.96,40.65,2.42-20.57,2.61-41.4.59-62.01-.61-6.18-2.36-13.55-8.26-15.48C26.77-2.5,19.97,15.32,14.17,33.45c12.67-3.5,20.78-18.58,16.7-31.08-.58-1.78-1.59-3.69-3.41-4.13-2.93-.71-5.02,2.73-6.05,5.56-5.47,15.09-10.57,30.31-15.29,45.66-.36,1.16-.7,2.48-.12,3.55.66,1.23,2.23,1.59,3.62,1.76,16.88,2.06,33.38-5.85,47.55-15.26,23.95-15.89,44.6-36.74,60.26-60.85,7.65-11.78,14.24-24.69,15.84-38.64"/>
</svg>